<svg xmlns="http://www.w3.org/2000/svg" viewBox="0 0 512 512"><title>chicken</title><g style="isolation:isolate"><g id="Layer_1" data-name="Layer 1"><path d="M512,256c0,141.39-114.62,256-256,256S0,397.39,0,256,114.62,0,256,0,512,114.61,512,256Z" fill="#e9573f"/><path id="_4" data-name="4" d="M496.69,320.55c-1-1-2-2-3-3s-2-2-3-3-2-2-3-3-2-2-3-3-2-2-3-3-2-2-3-3-2-2.05-3.06-3.06-2-2-3-3-2-2.07-3.08-3.09-2-2-3-3-2-2-3-3.05-2-2-3-3-2-2-3-3-2-2-3-3-2-2-3-3-2-2-3-3-2-2-3-3-2-2-3-3-2-2-3-3-2-2-3-3-2-2-3.06-3.06-2-2-3-3-2-2-3-3-2-2-3-3-2-2-3-3-2-2-3-3-2-2-3-3-2-2-3-3-2-2.07-3.08-3.09-2-2-3-3-2-2-3-3-2-2-3-3-2-2.06-3.07-3.07-2-2-3-3-2-2-3.06-3.06-2-2-3-3-2-2-3-3-2-2-3-3-2-2-3-3-2-2-3-3-2-2-3-3-2-2-3-3-2-2-3-3-2-2-3-3-2.05-2.07-3.1-3.09-2-2-3-3A141.65,141.65,0,0,0,334,161.69a7,7,0,0,0-2.69-2.51,7.41,7.41,0,0,0-3-3,7.33,7.33,0,0,0-3-3,7.34,7.34,0,0,0-3-3,7.38,7.38,0,0,0-3-3,7.42,7.42,0,0,0-3-3,7.4,7.4,0,0,0-3-3,7.33,7.33,0,0,0-3-3,7.5,7.5,0,0,0-3-3,7.41,7.41,0,0,0-3-3,7.37,7.37,0,0,0-3-3,7.38,7.38,0,0,0-3-3,7.48,7.48,0,0,0-3-3,7.39,7.39,0,0,0-3-3,7.39,7.39,0,0,0-3-3,7.46,7.46,0,0,0-3-3,7.42,7.42,0,0,0-3-3,7.42,7.42,0,0,0-3-3,7.41,7.41,0,0,0-3-3c-4-6.73-11.58-4.24-16.09,12.66a21.08,21.08,0,0,0-1.69-1.55,24.1,24.1,0,0,0-3-3,25.3,25.3,0,0,0-3-3,23.69,23.69,0,0,0-3-3,23.93,23.93,0,0,0-3-3,26,26,0,0,0-3-3,25.1,25.1,0,0,0-3-3c-15.17-17.7-24.36,9.86,4.17,40.79a140.8,140.8,0,0,0-87.23,241.48c1,1,2,2,3.06,3.05s2,2,3,3,2,2,3,3,2,2,3,3,2,2,3,3,2,2,3,3,2,2,3,3,2,2,3.06,3,2,2,3,3,2,2,3,3,2,2,3,3,2,2,3,3,2,2,3,3,2,2,3,3,2,2,3,3,2,2,3,3,2,2,3,3,2,2.05,3.06,3.06,2,2,3,3,2,2,3,3,2,2,3,3,2,2.05,3.06,3.06,2,2,3,3,2,2,3,3.05,2,2,3,3,2,2,3,3,2,2,3,3,2,2,3,3,2,2,3,3,2,2,3,3,2,2,3,3,2,2,3,3,2,2,3,3,2,2,3,3,2,2,3,3,2,2,3,3,2,2.06,3.08,3.07,2,2,3,3,2,2,3,3,2,2.06,3.07,3.07,2,2,3,3,2,2,3,3,2,2,3,3c102.83-12.77,186.7-86.48,214.37-183.9q-1.24-1.26-2.49-2.5C498.73,322.54,497.71,321.54,496.69,320.55Z" fill="#e3e2e1" style="mix-blend-mode:multiply"/><g id="_4-2" data-name="4"><g id="icon"><path d="M274.94,139.42c15.33-40.18-12.19-58.64-17.08-4.35-20.93-74.09-51.28-38.31-12.71,3.5a140.78,140.78,0,1,0,29.79.85Z" fill="#ffce54"/><path d="M197.89,192.69c17.86.18,32.18,18.16,32,40.15s-14.9,39.68-32.77,39.49-32.18-18.17-31.95-40.15S180,192.51,197.89,192.69Z" fill="#f4f0df" fill-rule="evenodd"/><path d="M207.87,205.82c12.21.13,22,12.42,21.83,27.45s-10.18,27.12-22.39,27-22-12.42-21.83-27.44S195.65,205.71,207.87,205.82Z" fill="#7f4438" fill-rule="evenodd"/><path d="M198.24,207.84c4,0,7.15,4,7.1,8.92s-3.3,8.81-7.28,8.77-7.14-4-7.1-8.92S194.27,207.8,198.24,207.84Z" fill="#f4f0df" fill-rule="evenodd"/><path d="M314.91,192.69c17.87.18,32.18,18.16,32,40.15S332,272.52,314.1,272.33s-32.18-18.17-31.94-40.15S297,192.51,314.91,192.69Z" fill="#f4f0df" fill-rule="evenodd"/><path d="M324.9,205.82c12.21.13,22,12.42,21.82,27.45s-10.17,27.12-22.39,27-22-12.42-21.84-27.44S312.68,205.71,324.9,205.82Z" fill="#7f4438" fill-rule="evenodd"/><path d="M315.26,207.84c4,0,7.15,4,7.11,8.92s-3.32,8.81-7.28,8.77-7.15-4-7.09-8.92S311.3,207.8,315.26,207.84Z" fill="#f4f0df" fill-rule="evenodd"/><path d="M234.54,272.44c15-15.58,33.13-15.49,47.19,3.65,5.25,7.15-20.23,43.32-30,35.79C243.81,305.7,229.25,282,234.54,272.44Z" fill="#fc6e51" fill-rule="evenodd"/></g><path id="shadow" d="M274.94,139.42c15.33-40.18-12.19-58.64-17.08-4.35-.62-2.17-1.23-4.24-1.86-6.22v291a140.85,140.85,0,0,0,18.94-280.42Z" fill="#eeece7" style="mix-blend-mode:multiply"/></g></g></g></svg>