<svg xmlns="http://www.w3.org/2000/svg" viewBox="0 0 512 512"><title>red-elephant</title><g style="isolation:isolate"><g id="Layer_1" data-name="Layer 1"><path d="M512,256c0,141.37-114.61,256-256,256S0,397.38,0,256,114.62,0,256,0,512,114.62,512,256Z" fill="#f6bb42"/><path id="_15" data-name="15" d="M501.54,235.31q-2.88-3.12-6-6c-1.92-2.08-3.93-4.1-6-6q-2.9-3.14-6.07-6.06c-1.92-2.08-3.94-4.11-6.05-6.06-1.92-2.08-3.93-4.1-6-6-1.91-2.07-3.93-4.08-6-6-1.93-2.08-3.93-4.09-6-6-1.92-2.07-3.95-4.1-6.05-6q-2.88-3.13-6.06-6.06-2.88-3.11-6.05-6-2.88-3.11-6-6-2.88-3.12-6-6c-30.14-32.61-84.52-50.26-116.13-16.88-1.31,1.39-2.53,2.83-3.7,4.31-.17.21-.33.43-.51.65q-1.66,2.14-3.17,4.4h0c-1.63-.85-3.27-1.63-4.94-2.38l-1-.42c-1.41-.61-2.82-1.19-4.27-1.75l-1.14-.44c-1.52-.56-3.07-1.09-4.64-1.58-.26-.07-.5-.17-.74-.24-1.86-.58-3.76-1.11-5.68-1.57l-.13,0c-1.78-.42-3.57-.8-5.38-1.14-.53-.11-1.07-.19-1.62-.28-1.35-.22-2.73-.44-4.11-.62l-1.92-.23c-1.37-.14-2.75-.27-4.13-.36-.6,0-1.2-.1-1.8-.13-2-.11-4-.17-6-.17a98.21,98.21,0,0,0-48.17,12.77c-1.07-1.07-2.15-2.11-3.27-3.07-.5-.54-.93-1.14-1.44-1.68a55.25,55.25,0,0,0-4.61-4.34c-.48-.56-.91-1.16-1.43-1.71-42.64-45-126.77,2.79-136.86,54.91-3.1,16,2.93,27.54,13.29,36.21a47.23,47.23,0,0,0,6,6,46.79,46.79,0,0,0,6,6,45.15,45.15,0,0,0,6,6,46.05,46.05,0,0,0,6,6.06,47.2,47.2,0,0,0,6.05,6,46.16,46.16,0,0,0,6,6,46.5,46.5,0,0,0,6,6,47.35,47.35,0,0,0,6.07,6.07,46.18,46.18,0,0,0,6,6,45.75,45.75,0,0,0,6,6,47.67,47.67,0,0,0,6.05,6.06,46.52,46.52,0,0,0,6.06,6,46,46,0,0,0,6,6.06,47.67,47.67,0,0,0,6,6,47.26,47.26,0,0,0,6,6.06,46,46,0,0,0,6.05,6,45.66,45.66,0,0,0,6,6,47.21,47.21,0,0,0,6,6.06,45.51,45.51,0,0,0,6,6,46.51,46.51,0,0,0,6,6.06,48.16,48.16,0,0,0,6,6,47.07,47.07,0,0,0,6,6,46,46,0,0,0,6,6,47.17,47.17,0,0,0,6,6,46.14,46.14,0,0,0,6.06,6.05,45.44,45.44,0,0,0,6,6,46,46,0,0,0,6,6.05,47.22,47.22,0,0,0,6.05,6.05,45.63,45.63,0,0,0,6,6,46.53,46.53,0,0,0,6.05,6.06,48.34,48.34,0,0,0,6,6,45.5,45.5,0,0,0,6,6,44.22,44.22,0,0,0,6,6,46,46,0,0,0,6,6.05,45.72,45.72,0,0,0,6.05,6.05,45.77,45.77,0,0,0,6,6,46.58,46.58,0,0,0,6.06,6.06,46.66,46.66,0,0,0,6,6,45.54,45.54,0,0,0,6,6,46.36,46.36,0,0,0,6,6.06,47.41,47.41,0,0,0,6.06,6.05,45.44,45.44,0,0,0,6,6,45.21,45.21,0,0,0,6,6c.54.66,1.16,1.28,1.73,1.89C438.73,464.86,512,369,512,256c0-3.53-.12-7-.27-10.51-1.36-1.4-2.71-2.81-4.16-4.16C505.65,239.28,503.64,237.26,501.54,235.31Z" fill="#e3e2e1" style="mix-blend-mode:multiply"/><g id="_15-2" data-name="15"><g id="icon"><path d="M223.52,193.35c1.18-1.95-5.13-14.41-5.91-16.32-4.53-11.16-10.11-22.24-18.5-31.1-42.64-45-126.77,2.79-136.86,54.91-4.59,23.72,10.84,37.68,30.78,46.9A262.52,262.52,0,0,0,137.17,264c5.66,1.46,38,9.89,41.08,4.82C178.25,268.77,223.44,193.45,223.52,193.35Z" fill="#fc6e51"/><path d="M200.22,194.89c.71-1.31-3.79-9.32-4.35-10.56-3.3-7.21-7.29-14.32-13.06-19.91-29.32-28.4-83.22,5.4-88.36,39.93-2.35,15.73,8.19,24.46,21.57,30a173.59,173.59,0,0,0,29.46,9.41c3.77.8,25.28,5.42,27.13,2Z" fill="#e9573f"/><path d="M288.48,193.35c-1.19-1.95,5.13-14.41,5.9-16.32,4.53-11.16,10.12-22.24,18.51-31.1,42.64-45,126.77,2.79,136.85,54.91,4.6,23.72-10.83,37.68-30.78,46.9A262.91,262.91,0,0,1,374.83,264c-5.66,1.46-38,9.89-41.08,4.82Z" fill="#fc6e51"/><path d="M311.79,194.89c-.73-1.31,3.78-9.32,4.34-10.56,3.3-7.21,7.3-14.32,13.07-19.91,29.31-28.4,83.23,5.4,88.35,39.93,2.34,15.73-8.2,24.46-21.58,30a173,173,0,0,1-29.47,9.41c-3.76.8-25.27,5.42-27.13,2C339.37,245.73,311.82,195,311.79,194.89Z" fill="#e9573f"/><path d="M360.47,239.88c4.24,54.79-45.86,95.92-102.43,95.92s-102.21-36.62-102.21-89.6S201.46,144,258,144,356.39,187,360.47,239.88Z" fill="#fc6e51"/><path d="M230.53,224.27A21.51,21.51,0,1,1,209,202.75,21.5,21.5,0,0,1,230.53,224.27Z" fill="#f4f0df"/><path d="M220.34,224.27A11.32,11.32,0,1,1,209,212.94,11.32,11.32,0,0,1,220.34,224.27Z" fill="#7f4438"/><path d="M231.07,224.19a22.08,22.08,0,0,0-41.3-10.87l41.12,13.52A21.19,21.19,0,0,0,231.07,224.19Z" fill="#e9573f"/><path d="M281.47,224.27A21.51,21.51,0,1,0,303,202.75,21.5,21.5,0,0,0,281.47,224.27Z" fill="#f4f0df"/><path d="M291.66,224.27A11.32,11.32,0,1,0,303,212.94,11.32,11.32,0,0,0,291.66,224.27Z" fill="#7f4438"/><path d="M280.93,224.19a22.07,22.07,0,0,1,41.29-10.87l-41.11,13.52A19.07,19.07,0,0,1,280.93,224.19Z" fill="#e9573f"/><path d="M243,250c-27,9.81-30.32,40.94-16.55,64.13,5.74,9.66,10.36,17.8,12.67,29,2.11,10.13.14,21.12,4.6,30.55,5.47,11.56,17.53,13.64,26.07,5,7.56-7.7,6.46-21.1,8.29-31,4.55-24.55,20.12-50.89,13.93-76.4-4.64-19.14-32.49-27.58-48.73-21.29" fill="#e9573f"/></g><path id="shadow" d="M269.81,378.68c7.56-7.7,6.46-21.1,8.29-31a136.76,136.76,0,0,1,3.61-14.3c36.42-7.59,66.71-32.24,76-65.42,7.65-1.56,14.72-3.39,17.1-4A262.91,262.91,0,0,0,419,247.74c19.95-9.23,35.38-23.18,30.78-46.9-10.07-52.11-94.21-99.94-136.85-54.91a70.28,70.28,0,0,0-7.39,9.37A102.72,102.72,0,0,0,258,144c-.7,0-1.37,0-2,.07V383.81C260.66,384.55,265.65,382.9,269.81,378.68Z" fill="#eeece7" style="mix-blend-mode:multiply"/></g></g></g></svg>