<svg xmlns="http://www.w3.org/2000/svg" viewBox="0 0 512 512"><title>owl</title><g style="isolation:isolate"><g id="Layer_1" data-name="Layer 1"><path d="M512,256c0,141.38-114.62,256-256,256S0,397.38,0,256,114.62,0,256,0,512,114.61,512,256Z" fill="#f4f0df"/><path id="_8" data-name="8" d="M509,271.72l-3.12,2.84.1-5.86-3.11,2.84.1-5.86-3.13,2.84.1-5.87-3.12,2.84.1-5.87-3.12,2.85.09-5.87-3.12,2.85.1-5.87-3.13,2.84.1-5.86-3.11,2.84.08-5.86-3.12,2.84.1-5.86-3.12,2.84.11-5.87-3.15,2.86.1-5.66-3.1,2.83.1-6.06-3.12,2.84.11-5.86-3.14,2.84.11-5.87-3.12,2.84.1-5.86-3.11,2.84.1-5.86-3.13,2.85.11-5.87-3.13,2.84.1-5.57-3.12,2.85.11-6.16-3.12,2.84.1-5.86-3.12,2.84.11-5.86-3.13,2.84.1-5.86-3.13,2.84.1-5.87-3.12,2.84.1-5.86-3.13,2.84.1-5.87L430.35,199l.1-5.86L427.34,196l.1-5.87L424.31,193l.1-5.86L421.28,190l.1-5.87-3.12,2.84.1-5.86-3.12,2.84.09-5.86-3.12,2.84.11-5.87-3.13,2.84.11-5.86-3.12,2.84.09-5.87-3.12,2.84.1-5.86-3.13,2.84.1-5.87-3.12,2.84.1-5.86-3.12,2.83.1-5.86-3.12,2.84.1-5.87L388,156.73l.1-5.87L385,153.71l.1-5.86L382,150.69l.1-5.86L379,147.67l.11-5.87L376,144.64l.11-5.86-3.12,2.84.1-5.87-3.13,2.84.1-5.86-3.12,2.84.11-5.86-3.13,2.84.1-5.86-3.12,2.84.1-5.87-26.24,23.88c-1.42-1.34-2.89-2.62-4.36-3.87-.59-.5-1.2-1-1.8-1.45-.9-.73-1.78-1.47-2.68-2.17s-1.64-1.2-2.45-1.8-1.42-1.06-2.13-1.56c-1-.67-1.92-1.28-2.87-1.92-.6-.4-1.19-.81-1.8-1.19-1.15-.74-2.32-1.42-3.49-2.11-.42-.25-.84-.52-1.26-.76-1.31-.75-2.63-1.45-4-2.14l-.87-.48c-1.42-.73-2.87-1.42-4.34-2.09l-.54-.27c-1.55-.7-3.12-1.36-4.7-2l-.26-.11c-40.23-16-86-7.84-120.59,24.57l-27-24.55,1,57.39c-14.16,24.15-23.91,55-26.82,92.51,0,.39-.06.78-.07,1.17q-.35,4.59-.54,9.32c0,.8-.07,1.61-.1,2.42-.13,3.6-.22,7.25-.22,11,0,2,.08,4,.22,6,0,.65.13,1.28.2,1.93.12,1.3.23,2.61.41,3.88.1.75.25,1.49.39,2.23.19,1.14.37,2.27.61,3.39.18.77.38,1.53.56,2.29.27,1,.52,2.1.82,3.12.21.77.47,1.52.72,2.28.33,1,.66,2,1,3,.27.75.57,1.48.88,2.21.39.95.78,1.9,1.2,2.83.33.72.68,1.42,1,2.13.45.91.91,1.82,1.4,2.71.38.69.76,1.36,1.16,2,.53.88,1,1.75,1.6,2.61.41.65.84,1.29,1.28,1.92.59.86,1.18,1.7,1.8,2.54.44.61.9,1.21,1.37,1.81.66.84,1.33,1.66,2,2.47.48.56,1,1.12,1.44,1.67.73.83,1.49,1.63,2.26,2.43.48.5,1,1,1.47,1.51s.85.81,1.28,1.22l.28.3c.48.5,1,1,1.46,1.51s.85.81,1.29,1.22l.27.29c.49.51,1,1,1.46,1.52l1,1-4.18,10c-1.29,3.06-.17,6.46,2.46,7.56l.44.18a4.79,4.79,0,0,0,2.59,2.84l.42.18a4.77,4.77,0,0,0,2.6,2.85l.43.17a4.73,4.73,0,0,0,2.6,2.85l.43.18a4.72,4.72,0,0,0,2.59,2.85l.42.18a4.8,4.8,0,0,0,2.6,2.85l.42.18a4.8,4.8,0,0,0,2.61,2.85l.43.17a4.69,4.69,0,0,0,2.59,2.85l.42.18a4.75,4.75,0,0,0,2.59,2.84l.42.18a4.8,4.8,0,0,0,2.61,2.85l.42.18a4.78,4.78,0,0,0,2.6,2.85l.42.17a4.82,4.82,0,0,0,2.6,2.85l.42.18a4.8,4.8,0,0,0,2.6,2.85l.42.17a4.79,4.79,0,0,0,2.6,2.85l.43.17a4.76,4.76,0,0,0,2.59,2.84l.42.18a4.82,4.82,0,0,0,2.6,2.85l.42.18a4.79,4.79,0,0,0,2.59,2.85l.43.17a4.8,4.8,0,0,0,2.6,2.85l.43.17a4.74,4.74,0,0,0,2.6,2.85l.42.18a4.75,4.75,0,0,0,2.58,2.85l.42.18a4.88,4.88,0,0,0,2.6,2.85l.44.17a4.72,4.72,0,0,0,2.6,2.84l.42.18a4.75,4.75,0,0,0,2.6,2.85l.42.18a4.79,4.79,0,0,0,2.59,2.84l.43.18a4.77,4.77,0,0,0,2.6,2.84l.42.18a4.75,4.75,0,0,0,2.6,2.85l.42.18a4.83,4.83,0,0,0,2.6,2.84l.43.18a4.81,4.81,0,0,0,2.59,2.85l.43.18a4.77,4.77,0,0,0,2.6,2.84l.42.18a4.8,4.8,0,0,0,2.6,2.85l.43.18a4.77,4.77,0,0,0,2.58,2.84l.3.12a4.9,4.9,0,0,0,2.73,3.19l.65.26a4.62,4.62,0,0,0,2.38,2.47l.43.18a4.78,4.78,0,0,0,2.6,2.85l.42.18a4.79,4.79,0,0,0,2.58,2.84l.43.18a4.8,4.8,0,0,0,2.6,2.84l.43.18a4.71,4.71,0,0,0,2.6,2.85l.42.18a4.86,4.86,0,0,0,2.6,2.85l.28.12a4.84,4.84,0,0,0,2.72,3.11l.6.25a4.67,4.67,0,0,0,2.44,2.56l.42.18a4.83,4.83,0,0,0,2.6,2.84l.42.18a4.87,4.87,0,0,0,2.61,2.85l.42.18a4.78,4.78,0,0,0,2.6,2.84l.42.18a4.78,4.78,0,0,0,2.6,2.85l.42.18a5.35,5.35,0,0,0,.87,1.45c122.15-13,218.57-111.8,227.88-235l-2.28,2.07Z" fill="#e3e2e1" style="mix-blend-mode:multiply"/><g id="_8-2" data-name="8"><g id="icon"><path d="M389.11,297.44c0,126.2-266.24,126.2-266.24,0,0-48.51,10.69-87.28,27.75-116.38l-1-57.39,27,24.55c46-43.16,111.94-43.38,158.12-.67L361,123.67,360,178.74C377.87,208.07,389.11,247.62,389.11,297.44Z" fill="#48cfad" fill-rule="evenodd"/><path d="M310.72,384.59c-34.51,10-74.93,10-109.43,0a72.64,72.64,0,0,1-1.74-15.7c0-35.17,25.29-63.7,56.45-63.7s56.44,28.53,56.44,63.7A72.25,72.25,0,0,1,310.72,384.59Z" fill="#ffce54" fill-rule="evenodd"/><path d="M389.11,297.44c0,33.48-18.73,58.08-46.25,73.79a123.1,123.1,0,0,1-5.92-38.44c0-44.42,21.81-80.46,48.74-80.68a289.82,289.82,0,0,1,3.43,45.32Zm-220,73.79c-27.54-15.71-46.28-40.31-46.28-73.79a291.27,291.27,0,0,1,3.44-45.32c26.92.23,48.74,36.26,48.74,80.68A123.4,123.4,0,0,1,169.15,371.22Z" fill="#37bc9b" fill-rule="evenodd"/><polygon points="232.56 230.65 279.45 230.65 255.98 273.12 232.56 230.65" fill="#7f4438" fill-rule="evenodd"/><path d="M196.43,357.41l3.2,1.34c2.65,1.1,3.75,4.49,2.47,7.55l-9.57,22.93c-1.28,3.06-4.49,4.67-7.13,3.57l-3.19-1.32c-2.65-1.11-3.76-4.5-2.5-7.56L189.3,361c1.29-3.06,4.49-4.68,7.13-3.58Zm-15.05-6.24c-2.64-1.1-5.84.51-7.12,3.57l-9.59,22.92c-1.27,3.07-.17,6.47,2.47,7.56l3.19,1.31c2.66,1.11,5.86-.5,7.13-3.56L187,360.06c1.28-3.06.18-6.46-2.47-7.56l-3.2-1.32Zm-15.06-6.26,3.2,1.33c2.64,1.11,3.76,4.51,2.47,7.57l-9.57,22.91c-1.28,3.07-4.5,4.68-7.13,3.57L152.08,379c-2.63-1.1-3.76-4.5-2.46-7.56l9.57-22.93C160.47,345.43,163.68,343.81,166.31,344.91Z" fill="#7f4438" fill-rule="evenodd"/><path d="M315.56,360.58l-3.19,1.33c-2.65,1.1-3.77,4.5-2.49,7.55l9.57,22.93c1.29,3.07,4.49,4.67,7.13,3.57l3.2-1.33c2.63-1.09,3.75-4.5,2.48-7.55l-9.57-22.94c-1.29-3.06-4.5-4.66-7.14-3.57Zm15.06-6.24c2.64-1.11,5.84.5,7.13,3.58l9.57,22.92c1.28,3.06.17,6.47-2.47,7.56l-3.19,1.33c-2.65,1.1-5.85-.51-7.14-3.58l-9.57-22.92c-1.27-3.06-.15-6.47,2.47-7.56l3.2-1.32Zm15-6.26-3.19,1.32c-2.65,1.1-3.75,4.5-2.47,7.56l9.58,22.93c1.26,3.06,4.47,4.67,7.13,3.58l3.18-1.33c2.66-1.1,3.76-4.5,2.49-7.55l-9.58-22.93C351.53,348.59,348.32,347,345.67,348.08Z" fill="#7f4438" fill-rule="evenodd"/><path d="M237.71,198.75a30.84,30.84,0,1,1-30.85-30.84A30.85,30.85,0,0,1,237.71,198.75Z" fill="#f4f0df"/><path d="M223.09,198.75a16.23,16.23,0,1,1-16.23-16.23A16.23,16.23,0,0,1,223.09,198.75Z" fill="#7f4438"/><path d="M201.09,194.44a6.72,6.72,0,0,0,13.42.56l-12.41-4.07A6.68,6.68,0,0,0,201.09,194.44Z" fill="#f4f0df"/><path d="M206.82,167a31.63,31.63,0,0,0-27.54,16.07l22.19,7.3,13.78,4.53,23,7.55a34.15,34.15,0,0,0,.25-3.8A31.68,31.68,0,0,0,206.82,167Z" fill="#37bc9b"/><path d="M274.07,198.75a30.85,30.85,0,1,0,30.86-30.84A30.85,30.85,0,0,0,274.07,198.75Z" fill="#f4f0df"/><path d="M288.69,198.75a16.23,16.23,0,1,0,16.25-16.23A16.24,16.24,0,0,0,288.69,198.75Z" fill="#7f4438"/><path d="M310.7,194.44a6.72,6.72,0,0,1-13.41.56l12.4-4.07A6.68,6.68,0,0,1,310.7,194.44Z" fill="#f4f0df"/><path d="M305,167a31.64,31.64,0,0,1,27.55,16.07l-22.19,7.3-13.78,4.53-23,7.55A31.42,31.42,0,0,1,305,167Z" fill="#37bc9b"/></g><path id="shadow" d="M388.8,283.85q-.2-4.46-.5-8.8c-.06-.6-.08-1.2-.14-1.79-3-38.59-13.29-70.1-28.16-94.53l.95-55.07-26.24,23.88c-23-21.25-50.84-31.86-78.7-31.86V392.08c4.61,0,9.23-.16,13.83-.46l.7-.05c2-.14,4-.31,6-.49l1.31-.14q2.66-.28,5.33-.63l1.57-.21c1.68-.24,3.35-.49,5-.78.56-.09,1.14-.18,1.71-.29q2.46-.42,4.88-.93l1.69-.34c1.69-.35,3.36-.75,5-1.15l1.4-.32c2.11-.54,4.2-1.09,6.28-1.69h0c1.64-.48,3.25-1,4.86-1.5l3.88,9.3c1.29,3.07,4.49,4.67,7.13,3.57l3.2-1.33c2.63-1.09,3.75-4.5,2.48-7.55l-3.7-8.83c.77-.32,1.49-.65,2.24-1l3.7,8.86c1.29,3.07,4.49,4.68,7.14,3.58l3.19-1.33c2.64-1.09,3.75-4.49,2.47-7.56l-4.1-9.83c.18-.1.35-.22.54-.32.53-.31,1-.63,1.57-.95l4.25,10.16c1.26,3.06,4.47,4.67,7.13,3.58l3.18-1.33c2.66-1.1,3.76-4.5,2.49-7.55L357,361.71c.59-.47,1.14-.95,1.73-1.43.82-.67,1.64-1.36,2.44-2.06.59-.53,1.17-1.08,1.75-1.62.76-.7,1.51-1.4,2.24-2.13.57-.57,1.13-1.16,1.68-1.74.69-.73,1.39-1.45,2.06-2.21.54-.6,1.07-1.22,1.59-1.85s1.26-1.52,1.88-2.3,1-1.29,1.48-1.95,1.16-1.59,1.7-2.4.91-1.35,1.35-2,1-1.67,1.54-2.52c.41-.69.82-1.4,1.21-2.12.47-.87.92-1.75,1.35-2.63.36-.73.73-1.46,1.07-2.2.41-.9.8-1.83,1.17-2.76.31-.75.62-1.5.92-2.26.35-1,.66-1.94,1-2.91.25-.77.51-1.53.74-2.31.3-1,.56-2,.8-3.09.19-.78.41-1.54.57-2.32.24-1.11.42-2.24.61-3.37.13-.76.28-1.49.39-2.25.17-1.26.28-2.57.41-3.87.06-.65.15-1.29.19-1.94.15-2,.21-4,.21-6,0-3.73-.08-7.37-.19-11C388.88,285.59,388.83,284.72,388.8,283.85Z" fill="#eeece7" style="mix-blend-mode:multiply"/></g></g></g></svg>