<svg xmlns="http://www.w3.org/2000/svg" viewBox="0 0 512 512"><title>bear-2</title><g style="isolation:isolate"><g id="Layer_1" data-name="Layer 1"><path d="M512,256c0,141.37-114.62,256-256,256S0,397.37,0,256,114.62,0,256,0,512,114.61,512,256Z" fill="#f4f0df"/><path id="_6" data-name="6" d="M508.46,254.51a40.24,40.24,0,0,0-3-3,39.07,39.07,0,0,0-3-3,36.33,36.33,0,0,0-3-3,37.22,37.22,0,0,0-3-3,38.26,38.26,0,0,0-3-3,40.41,40.41,0,0,0-3-3,41.24,41.24,0,0,0-3-3,38.3,38.3,0,0,0-3-3,36.64,36.64,0,0,0-3-3,39.94,39.94,0,0,0-3-3,38,38,0,0,0-3-3,38.92,38.92,0,0,0-3-3,40.1,40.1,0,0,0-3-3,40.41,40.41,0,0,0-3-3,38.73,38.73,0,0,0-3-3,38.07,38.07,0,0,0-3-3,37.6,37.6,0,0,0-3-3,38.46,38.46,0,0,0-3-3,37.53,37.53,0,0,0-3-3,38.89,38.89,0,0,0-3-3,39.16,39.16,0,0,0-3-3,39,39,0,0,0-3-3,37,37,0,0,0-3-3,36.48,36.48,0,0,0-3-3,38.34,38.34,0,0,0-3-3,39.6,39.6,0,0,0-3-3,40.77,40.77,0,0,0-3-3,40.86,40.86,0,0,0-3-3,38,38,0,0,0-3-3,37.9,37.9,0,0,0-3-3,38.68,38.68,0,0,0-3-3,37.9,37.9,0,0,0-3-3,40.3,40.3,0,0,0-3-3,40.56,40.56,0,0,0-3-3,38.35,38.35,0,0,0-3-3,36.45,36.45,0,0,0-3-3,37.06,37.06,0,0,0-32.48-12.34c-.45.05-.89.14-1.32.2-1,.16-2,.36-3,.6l-1.39.36q-1.53.44-3,1c-.35.14-.72.25-1.07.4a38.6,38.6,0,0,0-3.91,1.86l-.06,0a40,40,0,0,0-3.53,2.26c-.28.21-.55.43-.84.64q-1.33,1-2.56,2.12l-.81.74c-.87.85-1.71,1.73-2.51,2.65-.14.16-.28.31-.41.47a38.77,38.77,0,0,0-2.68,3.59c-2.84-1.69-5.77-3.28-8.76-4.8l-.89-.44a157.33,157.33,0,0,0-18.36-7.79l-1.44-.49c-3.09-1.06-6.23-2-9.42-2.93l-.11,0c-3.2-.87-6.44-1.62-9.72-2.31l-2-.41c-3.18-.62-6.38-1.18-9.64-1.62l-.29,0c-3.3-.44-6.65-.76-10-1l-2.42-.16c-3.39-.2-6.79-.34-10.25-.34l-.75,0c-30.72.14-59.22,8.42-82.79,22.48-.59-.6-1.22-1.16-1.85-1.71a37.45,37.45,0,0,0-3-3,37.51,37.51,0,0,0-28-12.62c-20.95,0-37.93,17.24-37.93,38.5a38.65,38.65,0,0,0,12.92,28.91,40.25,40.25,0,0,0,3,3c.78.87,1.61,1.71,2.47,2.51A113.22,113.22,0,0,0,109.17,256c0,33.17,14.54,63.39,38.4,86.13,1,1,2,2,3,3s2,2.06,3.06,3.06,2,2,3,3,2,2.06,3.06,3.06,2,2,3,3,2,2,3,3,2,2,3,3,2,2,3,3,2,2.05,3.05,3,2,2,3,3,2,2,3,3,2,2.07,3.06,3.06,1.94,2,2.95,3,2,2.08,3.1,3.1,2,2,3,3,2,2,3,3,2,2.07,3.08,3.07,2,2,3,3,2,2,3,3,2,2,3,3,2,2.08,3.08,3.08,2,2,3,3,2,2,3,3,2,2.05,3,3,2,2,3,3,2,2.07,3.06,3.06,2,2,3,3,2,2.05,3.05,3,2,2,3,3,2,2,3,3,2,2.07,3.07,3.07,2,2,3,3,2,2.06,3.06,3.06,2,2,3,3,2,2,3,3,2,2.06,3.07,3.07,1.94,2,3,3,2,2,3,3,2,2.07,3.08,3.07,1.94,2,3,3,2,2.05,3.06,3,2,2,3,3,2,2,3,3,2,2.07,3.07,3.06,2,2,3,3,2,2,3,3,1.94,2,3,3,2,2.07,3.08,3.08,2,2,3,3,2,2,3,3,2,2.06,3.05,3.05,2,2,3,3,2,2.06,3.07,3.06,2,2,3,3l.66.67C425.5,480.74,511,379.47,511.95,258c-.16-.14-.29-.3-.44-.44A40.83,40.83,0,0,0,508.46,254.51Z" fill="#e3e2e1" style="mix-blend-mode:multiply"/><g id="_6-2" data-name="6"><g id="icon"><path d="M178.25,171.63c0,21.27-17,38.5-37.92,38.5s-37.93-17.23-37.93-38.5,17-38.5,37.93-38.5S178.25,150.37,178.25,171.63Z" fill="#ffce54"/><path d="M159.28,171.63a19,19,0,1,1-19-19.25A19.12,19.12,0,0,1,159.28,171.63Z" fill="#f6bb42"/><path d="M333.74,171.63c0,21.27,17,38.5,37.93,38.5s37.93-17.23,37.93-38.5-17-38.5-37.93-38.5S333.74,150.37,333.74,171.63Z" fill="#ffce54"/><path d="M352.7,171.63a19,19,0,1,0,19-19.25A19.12,19.12,0,0,0,352.7,171.63Z" fill="#f6bb42"/><path d="M404.31,256c0,70.7-66.07,128-147.57,128S109.17,326.68,109.17,256s66.07-128,147.58-128S404.31,185.3,404.31,256Z" fill="#ffce54"/><path d="M169.15,222.88a2.27,2.27,0,0,1,1.08-3h0a2.27,2.27,0,0,1,3,1.08h0a8.51,8.51,0,0,0,7.73,5.28h.21a2.29,2.29,0,0,1,2.45,2.09h0a2.28,2.28,0,0,1-2.09,2.45h0c-.05,0-.25,0-.57,0h-.19a13.12,13.12,0,0,1-11.66-7.88Z" fill="#7f4438"/><path d="M329.2,230.77c-.32,0-.51,0-.57,0h0a2.27,2.27,0,0,1-2.09-2.45h0a2.28,2.28,0,0,1,2.45-2.09h.21a8.51,8.51,0,0,0,7.72-5.28h0a2.27,2.27,0,0,1,3-1.08h0a2.27,2.27,0,0,1,1.09,3h0a13.14,13.14,0,0,1-11.66,7.88h-.18Z" fill="#7f4438"/><path d="M253.87,322.57h0a2.28,2.28,0,0,1-.05-3.22h0a2.29,2.29,0,0,1,3.23-.05h0a14.31,14.31,0,0,0,1.13.93h0a25.38,25.38,0,0,0,3.64,2.25h0a30.56,30.56,0,0,0,14.09,3.33h0a38.76,38.76,0,0,0,12.88-2.31h0a2.27,2.27,0,0,1,2.9,1.4h0a2.27,2.27,0,0,1-1.4,2.89h0a43.52,43.52,0,0,1-14.37,2.57h0c-13.94,0-21.81-7.58-22-7.79Z" fill="#7f4438"/><path d="M221.76,327.07a2.28,2.28,0,0,1-1.44-2.88h0a2.28,2.28,0,0,1,2.87-1.44h0a42.74,42.74,0,0,0,13.48,2.39h0c10,0,15.11-4.57,16.1-5.53h0l.16-.16h0a2.27,2.27,0,0,1,3.21-.21h0a2.28,2.28,0,0,1,.21,3.21h0c-.23.28-6.51,7.25-19.68,7.25h0a47.16,47.16,0,0,1-14.91-2.63Z" fill="#7f4438"/><path d="M255,322a2.27,2.27,0,0,1-2.24-2.31h0l.25-12.59a2.26,2.26,0,0,1,2.31-2.22h0a2.26,2.26,0,0,1,2.22,2.31h0l-.24,12.59a2.26,2.26,0,0,1-2.27,2.22H255Z" fill="#7f4438"/><path d="M285.12,273.5c-2.07-13.16-8-41.74-27.22-42.38v0c-.18,0-.32,0-.46,0a1.25,1.25,0,0,0-.23,0v0c-17.79-.41-26.39,27.23-29.55,40.14-5.44,22.41,4.17,35.09,25.45,37.34l0,.13c.73,0,1.39,0,2.11,0s1.42.11,2.15.14v-.13C278.36,308.14,288.74,296.27,285.12,273.5Z" fill="#f6bb42"/><path d="M253.1,308.58l0,.13c.73,0,1.39,0,2.11,0s1.42.11,2.15.14v-.13c13.87-.38,23-5.81,26.63-15.9-6.49-5.15-16.06-8.61-27-9-11.84-.47-22.52,2.83-29.38,8.24C230.91,301.57,239.67,307.17,253.1,308.58Z" fill="#b98c32"/><path d="M198.5,220.74a9.67,9.67,0,0,0-1.16.13,5.67,5.67,0,0,1,1.84,5.48,6.55,6.55,0,0,1-7.13,5.22,5.54,5.54,0,0,1-4-2.54,12.81,12.81,0,0,0-.59,4.59,11.74,11.74,0,1,0,11-12.88Z" fill="#7f4438"/><path d="M198,212.12c-11.05.63-19.46,10.47-18.8,22s10.13,20.31,21.16,19.69,19.45-10.46,18.78-22S209,211.5,198,212.12Zm1.87,33.05a12,12,0,0,1-12.42-11.55,12.81,12.81,0,0,1,.59-4.59,5.54,5.54,0,0,0,4,2.54,6.55,6.55,0,0,0,7.13-5.22,5.67,5.67,0,0,0-1.84-5.48,9.67,9.67,0,0,1,1.16-.13,12.25,12.25,0,0,1,1.4,24.43Z" fill="#f4f0df"/><path d="M313.55,220.76a11.52,11.52,0,0,0-2.45.13,5.63,5.63,0,0,1,2.05,5.67,6.53,6.53,0,0,1-7.12,5.21,5.52,5.52,0,0,1-4.2-3,12.24,12.24,0,0,0-.73,3.55A11.83,11.83,0,0,0,312,245.18a12.13,12.13,0,0,0,12.46-11.6A11.83,11.83,0,0,0,313.55,220.76Z" fill="#7f4438"/><path d="M314.07,212.13c-11-.57-20.53,8.29-21.25,19.79s7.63,21.3,18.67,21.86S332,245.51,332.75,234,325.12,212.71,314.07,212.13Zm10.41,21.44A12.13,12.13,0,0,1,312,245.18a11.83,11.83,0,0,1-10.93-12.82,12.24,12.24,0,0,1,.73-3.55,5.52,5.52,0,0,0,4.2,3,6.53,6.53,0,0,0,7.12-5.21,5.63,5.63,0,0,0-2.05-5.67,11.52,11.52,0,0,1,2.45-.13A11.83,11.83,0,0,1,324.48,233.58Z" fill="#f4f0df"/></g><path id="shadow" d="M371.67,133.13a37.75,37.75,0,0,0-31.6,17.23A162.93,162.93,0,0,0,256.74,128l-.75,0V384h.75c81.5,0,147.57-57.31,147.57-128a113.16,113.16,0,0,0-12.59-51.71,38.61,38.61,0,0,0,17.87-32.64C409.6,150.37,392.62,133.13,371.67,133.13Z" fill="#eeece7" style="mix-blend-mode:multiply"/></g></g></g></svg>