<svg id="Layer_1" data-name="Layer 1" xmlns="http://www.w3.org/2000/svg" viewBox="0 0 512 512"><defs><style>.cls-1{fill:#141f38;}</style></defs><title>phone-smile-outline</title><circle class="cls-1" cx="203.49" cy="452.92" r="13.13"/><path class="cls-1" d="M216.62,52.51H190.36a6.56,6.56,0,0,0,0,13.13h26.26a6.56,6.56,0,1,0,0-13.13Z"/><path class="cls-1" d="M446.36,256a111.72,111.72,0,0,0-105-111.39V118.15h0V72.21A72.29,72.29,0,0,0,269.13,0H137.85A72.29,72.29,0,0,0,65.64,72.21V105h0V407h0v32.82A72.29,72.29,0,0,0,137.85,512H269.13a72.29,72.29,0,0,0,72.21-72.21V393.85h0V367.39A111.72,111.72,0,0,0,446.36,256ZM78.77,72.21a59.14,59.14,0,0,1,59.08-59.08H269.13a59.14,59.14,0,0,1,59.08,59.08V105H78.77ZM328.21,439.79a59.14,59.14,0,0,1-59.08,59.08H137.85a59.14,59.14,0,0,1-59.08-59.08V407H328.21ZM78.77,393.85V118.15H328.21v26.46a111.58,111.58,0,0,0,0,222.78v26.46Zm256-39.39c-2.2,0-4.39-.07-6.56-.23a98.45,98.45,0,0,1,0-196.46c2.17-.16,4.36-.23,6.56-.23s4.39.07,6.56.23a98.45,98.45,0,0,1,0,196.46C339.16,354.39,337,354.46,334.77,354.46Z"/><circle class="cls-1" cx="308.51" cy="229.74" r="13.13"/><circle class="cls-1" cx="361.03" cy="229.74" r="13.13"/><path class="cls-1" d="M369,286.61a6.56,6.56,0,1,0-9.82-8.71,32.65,32.65,0,0,1-48.73,0,6.56,6.56,0,1,0-9.82,8.71,45.76,45.76,0,0,0,68.37,0Z"/></svg>